<svg xmlns="http://www.w3.org/2000/svg" xml:space="preserve" id="Layer_1" x="0" y="0" style="enable-background:new 0 0 4166 2002" version="1.1" viewBox="0 0 4166 2002"><style>.st0{fill:#0f2e66}</style><path d="M3349.8 1223.8c-113.8 0-200.6 59.1-221.1 154.1-3.8 16.8 5.2 28.3 23 28.3h87c14 0 23-6.3 28.2-23.1 12.8-41.2 38.3-60.5 83.1-60.5 56.1 0 85.6 36 85.6 106.7v20.6h-71.4c-172.6 0-254.4 60.3-254.4 177.2 0 100.2 71.6 164.5 180.2 164.5l-.2.2c65.1 0 117.6-27 149.4-73.2l7.7 41c2.5 15.4 12.8 23.1 28.2 23.1h67.8c16.7 0 25.5-9.1 25.5-25.6v-325.2c-.1-132.2-72.9-208.1-218.6-208.1zm85.8 334.2c0 95.2-43.5 134.8-108.6 134.8-47.3 0-79.2-26.9-79.3-70.6v.1-.2.1c.1-55.2 40.8-82.2 121.4-82.2h66.5v18zm-187.5 64.8s0-.1 0 0v-.2.2zM136.4 1761.1c5 15.4 14 21.8 29.3 21.8H259c14 0 25.5-6.4 29.3-21.8l112.4-395.9 112.4 395.9c3.8 15.4 15.3 21.8 29.3 21.8H636c15.3 0 24.1-6.4 29.3-21.8 60.2-167 101-332.9 135.4-499.9 3.8-16.8-3.8-28.3-21.6-28.3H696c-15.3 0-25.7 7.7-28.2 21.8-21.6 118.3-47.3 240.4-81.8 359.9l-99.6-359.9c-3.8-14.1-14-21.8-29.3-21.8H344.6c-15.3 0-25.5 7.7-29.3 21.8l-99.6 359.9c-34.5-119.6-60.2-241.6-81.8-359.9-2.7-14.1-12.8-21.8-28.2-21.8H22.6c-17.8 0-25.5 11.6-21.6 28.3 34.4 167 75.2 332.9 135.4 499.9zm996.4-537.1c-155.9 0-264.5 113.1-264.5 284s108.6 284 264.5 284 264.5-114.4 264.5-284-108.6-284-264.5-284zm126.4 299.3c0 113.1-49.8 177.4-126.4 177.4s-126.4-64.3-126.4-177.4v-30.8c0-113.1 49.8-177.4 126.4-177.4s126.4 64.3 126.4 177.4v30.8zm2398.9-262.1c44.6 190.1 115.3 369.9 197.1 509.9-34.5 79.8-55 118.3-113.8 118.3-14 0-29.3-2.5-44.6-6.3-17.8-5.2-28.2 1.3-28.2 19.3v61.7c0 14.1 6.3 24.5 21.6 28.3 16.7 3.8 37 7.7 56.1 7.7 99.6 0 154.6-39.9 201.9-141.4 72.8-156.8 157.1-361 215.9-596.2 5.2-17.9-3.8-29.5-21.6-29.5h-85.6c-15.3 0-25.5 7.7-28.1 23.1-23 129.8-66.5 253.1-113.8 371.4-53.6-107.9-95.8-237.7-122.6-371.4-2.5-15.4-12.8-23.1-28.1-23.1h-83.1c-17.9-.1-26.9 10.1-23.1 28.2zm-692.8-276.5h-81.8c-16.5 0-25.5 9.1-25.5 25.8v285.3c-31.8-46.4-82.9-72.1-145.6-72.1-144.4 0-230.1 104-230.1 284l-.4.2c0 179.9 85.6 284 230 284 64 0 116.3-27 148.3-73.2l9 41c2.7 15.4 12.8 23.1 28.2 23.1h67.8c16.5 0 25.5-8.9 25.5-25.6v-746.7c.1-16.8-8.7-25.8-25.4-25.8zm-226.4 708.4v-.4c-71.4 0-118.8-60.3-118.8-169.5v-30.8c0-109 47.1-169.5 118.8-169.5 80.4 0 121.4 57.8 121.4 185.1s-40.9 185.1-121.4 185.1zm-960.7-466.7c-57.5 0-107.3 30.8-135.4 75.9l-9-46.2c-2.5-14.1-11.5-23.1-28.2-23.1h-67.8c-16.7 0-25.5 9.1-25.5 25.6l.1 498.7c0 16.8 9 25.6 25.5 25.6h82c16.7 0 25.5-8.9 25.5-25.4l-.1-280.2c0-79.8 44.8-135.1 122.6-135.1 17.8 0 33.1 2.5 48.7 9.1 19.2 7.7 26.8 2.5 26.8-15.4V1260c0-7.7-3.8-12.9-9-16.8-15.4-11.6-34.5-16.8-56.2-16.8z" class="st0"/><path d="M1173.8 522c250.6-251 584-389.2 938.8-389.2h.1c354.1 0 687 137.9 937.4 388.3 143.2 143.2 249.5 313.3 314.4 499 2.8 8 10.2 13.3 18.7 13.3h98.4c13.4 0 23.1-13 18.9-25.8-70.1-216.5-191-414.8-356.5-580.4C2868.6 151.7 2502.3 0 2112.8 0h-.2c-390.2 0-757 152.1-1032.7 428.2-165.2 165.4-285.7 363.4-355.6 579.4-4.1 12.8 5.5 25.8 19 25.8h98.4c8.5 0 15.9-5.4 18.7-13.3C925 834.9 1031 665 1173.8 522z" style="fill:#fc5b05"/><path d="M2409.5 1752.2c-56.1-115.6-109.8-195.3-185.2-268.6l176.4-218.5c12.8-18.1 6.5-32.2-14-32.2h-91.9c-12.8 0-24.3 5-32 14.1l-178.9 228.7v-465.1h-.2c0-16.8-8.8-25.8-25.5-25.8h-81.8c-16.5 0-25.5 9.1-25.5 25.8v746.7c0 16.6 8.8 25.6 25.5 25.6h81.8c16.5 0 25.5-8.9 25.5-25.6v-252l.2.2c79.2 77 134.1 159.2 180 262 5.2 9.1 17.8 15.4 30.6 15.4h100.9c20.4.1 24.3-10.1 14.1-30.7z" class="st0"/></svg>