<svg height="123" viewBox="0 0 438 123" width="438" xmlns="http://www.w3.org/2000/svg">

    <path
      d="m58.644929 1.75606976 44.374894 25.69479374c2.959094 1.7134313 4.783798 4.892216 4.783798 8.3337739v51.2949634c0 3.4415579-1.824704 6.6203427-4.783798 8.333774l-44.374894 25.6947932c-2.9372829 1.700802-6.5489544 1.700802-9.4862373 0l-44.37489356-25.6947932c-2.95909486-1.7134313-4.78379814-4.8922161-4.78379814-8.333774v-51.2949634c0-3.4415579 1.82470328-6.6203426 4.78379814-8.3337739l44.37489356-25.69479374c2.9372829-1.70080135 6.5489544-1.70080135 9.4862373 0z"
      fill="#156de0"/>
    <path
      d="m34.0587276 79.188545c0 4.3639529 1.204634 5.4295035 5.5240446 6.40037 2.0082112.4847266 6.6291463 1.2605718 12.6552437 1.2605718 15.5694919 0 21.5955893-4.7511688 21.5955893-14.6421358 0-8.1470817-4.1188822-11.7351893-11.550142-14.5474517l-10.4465041-3.9753236c-3.0137806-1.1644745-4.1174185-1.7467117-4.1174185-3.2984022 0-1.7452985 1.4051624-2.6172412 7.4327235-2.6172412 5.5240446 0 8.6373575.6783347 10.7465648 1.1630613 4.4189429 1.0669639 5.6250407 0 5.6250407-4.3639528v-.9694533c0-4.3639529-1.1051017-5.4309167-5.5240447-6.40037-1.204634-.2911186-4.6223987-1.1630613-10.6484961-1.1630613-14.8639833 0-20.489024 4.8472663-20.489024 14.2549199 0 7.9520605 4.0178862 11.152952 10.4465041 13.7701932l9.3414024 3.7817156c5.1215241 2.0364171 6.3276218 2.716165 6.3276218 4.4614635 0 2.2300251-1.9086789 2.8122624-7.7342479 2.8122624-7.1326628 0-11.1490853-.8733559-13.660813-1.5516905-4.418943-1.1644745-5.5240446.193608-5.5240446 4.5575608z"
      fill="#fff"/>
    <path
      d="m134.087799 74.15834c0 2.53216.672892 3.15044 3.085655 3.71378 1.121759.28126 3.702949.73144 7.069043.73144 8.696902 0 12.062996-2.75684 12.062996-8.49602 0-4.7273-2.30075-6.80928-6.451749-8.44108l-5.835272-2.30666c-1.683456-.67568-2.299932-1.01352-2.299932-1.91388 0-1.0127.784904-1.51864 4.151816-1.51864 3.085654 0 4.824708.3936 6.002882.67486 2.46836.6191 3.142069 0 3.142069-2.53216v-.56252c0-2.53216-.617294-3.15126-3.085654-3.71378-.672892-.16892-2.582008-.67486-5.948103-.67486-8.302814 0-11.444884 2.8126-11.444884 8.27134 0 4.61414 2.244336 6.47144 5.835272 7.99008l5.217978 2.19432c2.860812 1.18162 3.534522 1.57604 3.534522 2.58874 0 1.29396-1.066162 1.6318-4.320244 1.6318-3.984206 0-6.227724-.50676-7.63074-.90036-2.46836-.67568-3.085655.11234-3.085655 2.6445zm24.854482-20.25728c0 2.2509.560062 2.81342 2.805215 2.81342h2.243518v11.08558c0 8.21558 4.600683 10.74692 10.829225 10.74692 1.963895 0 3.197667-.16892 3.926973-.33702 2.469178-.50676 3.085655-1.46288 3.085655-3.99504v-.6191c0-2.53216-.616477-2.75684-3.085655-2.30748-.560879.11234-1.963078.33784-3.926973.33784-2.132323 0-3.53534-.95694-3.53534-3.77036v-11.14134h6.396152c2.524775 0 3.142069-.6191 3.142069-3.15126v-.61828c0-2.53216-.617294-3.15126-3.142069-3.15126h-6.396152v-4.38864c0-2.36406-.560062-2.92658-2.917227-2.92658h-.336037c-2.357165 0-3.030057.56252-3.36773 2.87l-.672891 4.44522-2.299933.50594c-2.188738.45018-2.7488 1.12586-2.7488 3.37594zm45.790983 12.21062c0 3.60144-.953331 5.57108-6.003699 5.57108-5.048733 0-6.115712-1.96964-6.115712-5.57108v-4.5018c0-3.60144 1.066979-5.57026 6.115712-5.57026 5.050368 0 6.003699 1.96882 6.003699 5.57026zm-6.003699 12.49188c8.753317 0 13.353182-4.44522 13.353182-12.49188v-4.5018c0-8.3271-4.151816-12.49106-13.353182-12.49106-8.752499 0-13.465195 4.4444-13.465195 12.49106v4.5018c0 8.32792 4.263828 12.49188 13.465195 12.49188zm25.640203-18.11954c0-2.86918.842137-4.4444 5.44282-4.4444 4.600684 0 5.32999 1.57522 5.32999 4.4444v14.29342c0 2.53134.617295 3.15126 3.14207 3.15126h1.066162c2.524775 0 3.142069-.61992 3.142069-3.15126v-14.29342c0-7.53908-3.815779-11.3652-12.680291-11.3652-8.472059 0-12.792303 3.99504-12.792303 11.3652v14.29342c0 2.53134.617295 3.15126 3.14207 3.15126h1.066161c2.524776 0 3.141252-.61992 3.141252-3.15126zm48.979657.78884c0-7.99008-4.095401-12.15404-12.287021-12.15404-9.762246 0-13.071925 5.40134-13.071925 12.65998v4.5018c0 8.72152 4.712696 12.32296 14.642551 12.32296 3.14207 0 5.779675-.45018 6.845019-.73144 2.469178-.61828 2.973642-1.12504 2.973642-3.6572v-.6191c0-2.53216-.504464-3.20702-2.973642-2.70108-1.065344.2255-3.870559.78802-6.788604.78802-5.217978 0-7.349483-1.35136-7.349483-4.2763v-.8446h14.250917c2.580372 0 3.309679-.50676 3.646534-3.09468.112012-1.01352.112012-1.74496.112012-2.19432zm-18.009463-1.51946c0-2.81342 1.795468-4.27712 5.498417-4.27712s5.554015 1.4637 5.554015 4.27712v.8446h-11.052432zm23.059013 6.5272c0 8.83468 5.948102 12.32296 13.353183 12.32296 8.415645 0 13.409597-3.48828 13.409597-12.32296v-4.5018c0-8.04666-3.983388-12.65998-11.781738-12.65998-3.872194 0-6.228542 1.23738-7.687156 3.20702v-10.6354c0-2.53134-.617294-3.15044-3.141252-3.15044h-1.010564c-2.524775 0-3.14207.6191-3.14207 3.15044zm19.413297-.16892c0 3.60144-.842136 5.57108-6.003699 5.57108-5.04955 0-6.115712-1.96964-6.115712-5.57108v-4.5018c0-3.60144 1.066162-5.57026 6.115712-5.57026 5.050368 0 6.003699 1.96882 6.003699 5.57026zm19.635687-6.18936c0-2.53216.672892-3.8827 4.320243-3.8827h.616477c2.300751.16892 2.86163-.16892 2.86163-2.70108v-.6191c0-2.53216-.617294-3.60062-2.86163-3.60062h-.616477c-7.686337 0-11.669726 3.60062-11.669726 10.24098v15.41764c0 2.53134.617294 3.15126 3.142069 3.15126h1.065344c2.524775 0 3.14207-.61992 3.14207-3.15126zm33.786037-1.12586c0-7.37098-5.32999-9.67764-13.577207-9.67764-2.357165 0-3.702949.1681-4.545086.28044-2.412763.33784-3.030057 1.01352-3.030057 3.43252v.2255c0 2.53216.730124 2.98234 3.142887 2.6445.840502-.11234 2.636788-.33784 4.880305-.33784 3.479742 0 5.83609.50676 5.83609 3.43252v2.13856h-5.667662c-6.675774 0-11.847148 2.19432-11.847148 8.7781 0 5.79576 4.048798 8.89044 12.63287 8.89044 8.640487 0 12.175008-3.09468 12.175008-9.05936zm-7.293068 10.35414c0 3.09468-2.469995 3.31936-4.993953 3.31936-2.524775 0-4.76911-.22468-4.76911-2.92576 0-2.08198 1.290186-3.09468 3.983388-3.09468h5.779675zm20.03795-8.66658c0-2.86918.842137-4.4444 5.44282-4.4444s5.32999 1.57522 5.32999 4.4444v14.29342c0 2.53134.617294 3.15126 3.14207 3.15126h1.066161c2.523958 0 3.141252-.61992 3.141252-3.15126v-14.29342c0-7.53908-3.814961-11.3652-12.679473-11.3652-8.47206 0-12.792303 3.99504-12.792303 11.3652v14.29342c0 2.53134.617294 3.15126 3.142887 3.15126h1.065344c2.523958 0 3.141252-.61992 3.141252-3.15126zm23.339453 6.07784c0 7.70882 4.151816 12.0417 13.68922 12.0417 1.571443 0 3.030057-.2255 3.760181-.3936 2.468361-.50676 3.085655-1.18162 3.085655-3.71378v-.56334c0-2.53216-.617294-3.0381-3.085655-2.58792-.898551.16892-2.132323.33784-3.423326.33784-4.656281 0-6.675774-1.29396-6.675774-5.34558v-5.06432c0-4.16478 1.795468-5.23324 6.171309-5.23324 1.627859 0 2.636788.16892 3.534522.3936 2.356348.56334 2.973642 0 2.973642-2.53216v-.61828c0-2.53298-.617294-3.26442-2.973642-3.77036-.728489-.16892-1.906663-.3936-3.645717-.3936-8.921744 0-13.410415 4.83882-13.410415 12.0417zm25.089136 8.21558c0 2.53134.617294 3.15126 3.142069 3.15126h1.065344c2.524775 0 3.14207-.61992 3.14207-3.15126v-11.92936c0-5.5145 2.806032-6.80846 6.059296-6.80846 2.917228 0 4.712696.90036 4.712696 4.05162v14.6862c0 2.53134.618112 3.15126 3.142887 3.15126h1.065344c2.524775 0 3.14207-.61992 3.14207-3.15126v-15.98098c0-7.59648-5.050368-9.67764-9.537404-9.67764-3.703766 0-6.789421 1.23738-8.584889 3.20702v-10.6354c0-2.53134-.617295-3.15044-3.14207-3.15044h-1.065344c-2.524775 0-3.142069.6191-3.142069 3.15044z"
      fill="#156de0"/>

</svg>
