<?xml version="1.0" encoding="UTF-8"?> <svg xmlns="http://www.w3.org/2000/svg" xmlns:xlink="http://www.w3.org/1999/xlink" version="1.1" id="Layer_1" x="0px" y="0px" viewBox="0 0 154 154" style="enable-background:new 0 0 154 154;" xml:space="preserve"> <style type="text/css"> .st0{fill:#FFFFFF;} .st1{fill:#282C39;} </style> <circle class="st0" cx="77" cy="77" r="77"></circle> <g> <path class="st1" d="M52.9,110.3H21.1c4,6.8,9.2,12.7,15.3,17.6h22.8l58.4-48.6h24.3c0-0.7,0.1-1.4,0.1-2.1 c0-5.2-0.6-10.4-1.8-15.4h-28.8L52.9,110.3z"></path> <path class="st1" d="M15.2,56.8h12.4l53.6-44.6C79.9,12.1,78.5,12,77,12c-13.1,0-25.9,4-36.7,11.4l-9.4,7.8 C23.8,38.3,18.4,47.2,15.2,56.8L15.2,56.8z"></path> <path class="st1" d="M37.1,74.8h-25c0,0.7-0.1,1.5-0.1,2.2c0,5.2,0.6,10.3,1.8,15.3h29.6L102,43.7h30.9 c-4.1-6.8-9.3-12.7-15.4-17.6H95.5L37.1,74.8z"></path> <path class="st1" d="M73.5,141.9c1.2,0.1,2.3,0.1,3.6,0.1c13.7,0,27-4.3,38.2-12.4c11.1-8.1,19.4-19.4,23.7-32.4h-11.7L73.5,141.9z "></path> </g> </svg> 